<?xml version="1.0" encoding="UTF-8"?><svg xmlns="http://www.w3.org/2000/svg" xmlns:xlink="http://www.w3.org/1999/xlink" contentScriptType="text/ecmascript" width="375" zoomAndPan="magnify" contentStyleType="text/css" viewBox="0 0 375 374.999991" height="374.999991" preserveAspectRatio="xMidYMid meet" version="1.0"><defs><clipPath id="clip-0"><path d="M 26.90625 26.90625 L 347.90625 26.90625 L 347.90625 347.90625 L 26.90625 347.90625 Z M 26.90625 26.90625 " clip-rule="nonzero"/></clipPath></defs><g clip-path="url(#clip-0)"><path fill="rgb(96.469116%, 53.729248%, 27.449036%)" d="M 347.90625 315.804688 C 347.90625 333.535156 333.535156 347.90625 315.804688 347.90625 L 59.003906 347.90625 C 41.277344 347.90625 26.90625 333.535156 26.90625 315.804688 L 26.90625 59.003906 C 26.90625 41.277344 41.277344 26.90625 59.003906 26.90625 L 315.804688 26.90625 C 333.535156 26.90625 347.90625 41.277344 347.90625 59.003906 Z M 347.90625 315.804688 " fill-opacity="1" fill-rule="nonzero"/></g><path fill="rgb(0%, 0%, 0%)" d="M 115.257812 265.125 C 119.074219 267.726562 122.273438 271.054688 125.925781 273.882812 C 131.90625 278.53125 138.808594 282.097656 146.15625 283.96875 C 161.078125 287.757812 177.683594 284.046875 192.054688 279.746094 C 198.695312 277.761719 205.480469 275.527344 211.207031 271.53125 C 213.351562 270.027344 214.398438 268.167969 215.515625 265.855469 C 217.027344 262.734375 224.5625 264.128906 227.625 262.746094 C 233.351562 260.15625 236.9375 246.125 234.238281 240.316406 C 237.148438 237.257812 237.386719 232.722656 237.492188 228.519531 C 237.695312 219.90625 236.351562 211.371094 236.378906 202.773438 C 238.050781 202.449219 239.480469 201.753906 240.34375 200.566406 C 242.242188 197.910156 242.011719 194.917969 241.167969 191.886719 C 239.640625 186.4375 235.90625 183.929688 236.886719 177.667969 C 236.898438 177.589844 236.898438 177.511719 236.898438 177.433594 C 236.925781 177.34375 236.945312 177.261719 236.945312 177.160156 C 237.476562 171.878906 236.9375 166.742188 236.203125 161.5 C 235.199219 154.367188 235.050781 147.988281 235.796875 140.851562 C 236.234375 136.617188 233.351562 128.84375 239.546875 128.609375 C 241.078125 128.546875 242.675781 128.019531 244.039062 127.339844 C 248.03125 125.355469 251.046875 125.835938 255.277344 126.644531 C 260.355469 127.601562 268.648438 129.96875 270.78125 123.304688 C 273.796875 113.839844 275.316406 103.335938 273.007812 93.574219 C 272.804688 92.734375 271.992188 92.226562 271.175781 92.1875 C 262.953125 91.808594 254.792969 91.847656 246.617188 90.882812 C 238.953125 89.976562 231.386719 90.941406 223.777344 90.316406 C 221.101562 90.09375 215.65625 89.105469 212.75 90.882812 C 199.699219 90.292969 186.609375 90.125 173.601562 91.429688 C 171.199219 87.222656 164.269531 87.765625 159.859375 89.285156 C 154.4375 91.152344 153.464844 101.464844 151.980469 105.949219 C 151.019531 108.898438 149.628906 111.335938 150.421875 114.535156 C 150.863281 116.292969 151.375 117.933594 152.121094 119.578125 C 153.351562 122.269531 152.816406 123.09375 152.816406 125.71875 C 152.816406 133.730469 165.21875 130.726562 170.019531 130.546875 C 173.652344 130.410156 177.238281 130.132812 180.871094 129.824219 C 182.847656 129.664062 184.835938 129.601562 186.828125 129.613281 C 190.105469 129.613281 191.4375 130.003906 191.296875 133.300781 C 191.109375 138.070312 190.222656 142.773438 189.976562 147.53125 C 189.917969 148.953125 192.878906 158.390625 190.789062 158.339844 C 189.738281 158.3125 188.90625 159.226562 188.894531 160.234375 C 188.703125 171.890625 187.585938 183.511719 188.03125 195.167969 C 188.070312 196.226562 188.863281 197.039062 189.929688 197.0625 C 190.285156 197.078125 190.664062 197.089844 191.046875 197.101562 C 191.046875 197.191406 191.046875 197.269531 191.058594 197.371094 C 191.953125 203.207031 191.386719 207.871094 194.386719 213.214844 C 194.894531 214.128906 190.789062 216.703125 190.425781 218.0625 C 190.054688 219.398438 190.195312 220.863281 190.453125 222.300781 C 187.246094 224.480469 186.710938 231.167969 185.128906 234.035156 C 179.351562 241.898438 170.863281 241.640625 162.140625 239.984375 C 153.789062 238.421875 147.207031 237.445312 141.785156 230.402344 C 139.195312 227.054688 135.148438 222.242188 130.207031 223.378906 C 124.695312 224.640625 120.640625 229.800781 117.019531 233.871094 C 111.777344 239.746094 102.113281 251.464844 108.28125 259.539062 C 110.039062 261.839844 112.90625 263.503906 115.257812 265.125 " fill-opacity="1" fill-rule="nonzero"/><path fill="rgb(0%, 0%, 0%)" d="M 198.378906 224.691406 C 201.902344 215.90625 199.390625 205.898438 198.875 196.582031 C 197.542969 196.839844 196.144531 196.980469 194.804688 197.050781 C 195.121094 200.039062 194.726562 203.335938 195.488281 206.167969 C 196.113281 208.46875 197.933594 210.5625 198.238281 212.886719 C 198.445312 214.480469 197.386719 215.871094 196.640625 217.199219 C 196.3125 217.765625 195.679688 218.3125 195.109375 218.613281 C 193.757812 219.332031 193.832031 220.546875 194.109375 221.773438 C 194.542969 221.878906 195 222.039062 195.476562 222.242188 C 196.871094 222.835938 197.78125 223.695312 198.378906 224.691406 Z M 209.371094 218.375 C 209.289062 209.109375 210.296875 199.820312 208.398438 190.695312 C 207.574219 191.140625 206.828125 191.769531 206.222656 192.617188 C 205.320312 193.859375 204.066406 194.761719 202.636719 195.425781 C 203.015625 206.824219 206.371094 218.675781 200.445312 229.207031 C 200.125 229.761719 199.667969 230.035156 199.191406 230.101562 C 198.914062 232.644531 198.078125 235.273438 197.671875 237.367188 C 197.1875 239.796875 197.621094 241.414062 198.644531 242.4375 C 198.832031 241.980469 199.203125 241.589844 199.769531 241.378906 C 208.167969 238.164062 209.449219 225.777344 209.371094 218.375 Z M 209.628906 103.84375 C 214.175781 101.945312 211.515625 99.453125 210.84375 97.230469 C 210.523438 96.195312 210.382812 95.375 210.472656 94.589844 C 198.480469 94.082031 186.460938 94.011719 174.503906 95.128906 C 174.613281 96.8125 174.554688 98.484375 174.753906 100.136719 C 175.4375 105.75 178.667969 103.554688 181.121094 105.152344 C 182.914062 106.316406 182.519531 108.457031 183.609375 110.144531 C 188.320312 117.449219 202.390625 116.011719 202.636719 106.304688 C 202.675781 105.257812 203.480469 104.433594 204.535156 104.414062 C 206.195312 104.375 208.070312 104.484375 209.628906 103.84375 Z M 210.753906 242.070312 C 224.304688 229.394531 213.171875 206.824219 216.285156 190.8125 C 214.960938 190.1875 213.519531 189.847656 212.09375 189.824219 C 214.542969 201.324219 214.03125 214.625 212.957031 226.183594 C 212.367188 232.515625 208.714844 240.355469 203.015625 243.902344 C 205.140625 243.953125 207.664062 243.511719 210.257812 242.828125 C 210.351562 242.566406 210.496094 242.316406 210.753906 242.070312 Z M 226.144531 219.230469 C 226.292969 213.125 226.394531 207.046875 225.636719 200.984375 C 222.875 199.246094 222.253906 197.191406 220.605469 194.488281 C 220.355469 194.054688 220.035156 193.664062 219.699219 193.285156 C 217.464844 208.5 225.882812 227.210938 216.96875 240.605469 C 220.464844 239.238281 223.433594 237.8125 224.773438 237.066406 C 224.863281 237.015625 224.953125 236.976562 225.042969 236.929688 C 226.90625 231.378906 226.003906 225.023438 226.144531 219.230469 Z M 225.902344 259.308594 C 229.234375 255.871094 231.398438 249.554688 231.179688 244.800781 C 230.878906 238.34375 224.613281 241.882812 221.078125 243.574219 C 217.683594 245.207031 213.613281 245.457031 210.066406 246.824219 C 204.664062 248.90625 199.339844 248.757812 195.148438 244.292969 C 191.871094 240.792969 194.503906 235.773438 195.277344 231.957031 C 195.550781 230.582031 195.828125 228.75 195.339844 227.382812 C 192.238281 226.425781 190.589844 227.09375 190.425781 229.382812 C 190.324219 229.824219 190.234375 230.28125 190.128906 230.722656 C 189.800781 232.363281 189.410156 233.859375 188.703125 235.324219 C 188.648438 235.523438 188.558594 235.742188 188.410156 235.941406 C 188.28125 236.152344 188.140625 236.320312 187.992188 236.460938 C 180.304688 246.371094 169.195312 245.429688 157.84375 242.957031 C 152.867188 241.882812 146.976562 241.46875 143.152344 237.707031 C 140.730469 235.351562 138.996094 232.414062 136.613281 230.050781 C 131.128906 224.609375 126.800781 229.183594 123.023438 233.011719 C 118.933594 237.15625 114.871094 241.78125 112.269531 247.050781 C 111.019531 249.570312 108.824219 254.039062 110.890625 256.746094 C 113.484375 260.132812 117.742188 261.839844 120.921875 264.570312 C 127.785156 270.429688 134.726562 276.652344 143.609375 279.328125 C 150.878906 281.519531 158.488281 281.996094 166.042969 281.265625 C 174.527344 280.429688 182.898438 278.621094 191.046875 276.097656 C 198.8125 273.683594 208.128906 271.511719 212.238281 263.933594 C 213.097656 262.367188 214.226562 260.523438 216.214844 260.195312 C 218.734375 259.777344 224.089844 261.179688 225.902344 259.308594 Z M 231.804688 237.445312 C 234.765625 234.160156 233.613281 227.285156 233.628906 223.40625 C 233.667969 216.550781 232.589844 209.792969 232.578125 202.957031 C 231.554688 202.878906 230.535156 202.71875 229.589844 202.5 C 230.117188 208.0625 230.066406 213.609375 229.945312 219.230469 C 229.800781 224.859375 230.5625 230.808594 229.183594 236.308594 C 230.117188 236.488281 231.007812 236.878906 231.804688 237.445312 Z M 269.234375 113.75 C 270.3125 107.753906 270.769531 101.871094 269.601562 95.902344 C 261.15625 95.527344 252.808594 95.183594 244.355469 94.4375 C 236.949219 93.792969 229.617188 94.488281 222.203125 93.980469 C 219.546875 93.792969 212.996094 92.394531 215.089844 97.507812 C 215.828125 99.34375 216.234375 101.246094 215.410156 103.160156 C 213.730469 107.042969 210.066406 107.910156 206.253906 108.140625 C 204.21875 120.347656 185.296875 122.386719 179.847656 111.070312 C 178.984375 109.277344 179.570312 108.628906 178.03125 108.101562 C 176.023438 107.394531 174.414062 106.636719 172.789062 105.230469 C 169.917969 102.757812 171.398438 97.839844 170.703125 94.691406 C 170.035156 91.691406 166.800781 91.898438 164.027344 92.1875 C 159.390625 92.695312 158.554688 96.953125 157.542969 100.507812 C 156.601562 103.765625 153.535156 109.386719 153.980469 112.691406 C 154.375 115.75 156.023438 117.917969 156.957031 120.703125 C 157.582031 122.558594 157.007812 123.265625 156.71875 125.148438 C 156.15625 128.636719 169.738281 126.78125 172.234375 126.714844 C 178.03125 126.554688 188.675781 123.265625 193.640625 127.410156 C 195.996094 129.382812 195.121094 133.1875 194.910156 135.871094 C 194.527344 140.53125 192.917969 146.09375 194.277344 150.605469 C 195.421875 154.433594 197.214844 160.769531 192.640625 161.929688 C 192.398438 172.398438 191.523438 182.84375 191.792969 193.3125 C 194.65625 193.351562 198.050781 193.195312 200.402344 192.289062 C 203.136719 191.234375 204.710938 187.824219 207.128906 186.171875 C 210.550781 183.820312 218.109375 186.945312 220.910156 189.167969 C 223.34375 191.113281 223.761719 193.386719 225.460938 195.816406 C 225.789062 196.265625 226.523438 196.800781 227.472656 197.308594 C 228.03125 197.28125 228.554688 197.46875 228.867188 197.949219 C 232.796875 199.554688 238.496094 200.277344 238.0625 195.804688 C 237.632812 191.214844 234.226562 187.824219 232.785156 183.578125 C 232.09375 181.59375 232.816406 178.988281 233.15625 176.964844 C 234.253906 165.53125 230.574219 154.433594 231.78125 142.917969 C 232.378906 137.183594 228.765625 127.640625 235.773438 125.066406 C 238.316406 124.113281 240.910156 124.609375 243.558594 123.34375 C 244.714844 122.804688 245.902344 122.152344 247.207031 122.0625 C 251.566406 121.761719 255.667969 123.039062 259.9375 123.671875 C 262.914062 124.125 266.511719 124.730469 267.496094 121.082031 C 268.15625 118.664062 268.792969 116.230469 269.234375 113.75 Z M 273.007812 93.574219 C 275.316406 103.335938 273.796875 113.839844 270.78125 123.304688 C 268.648438 129.96875 260.355469 127.601562 255.277344 126.644531 C 251.046875 125.835938 248.03125 125.355469 244.039062 127.339844 C 242.675781 128.019531 241.078125 128.546875 239.546875 128.609375 C 233.351562 128.84375 236.234375 136.617188 235.796875 140.851562 C 235.050781 147.988281 235.199219 154.367188 236.203125 161.5 C 236.9375 166.742188 237.476562 171.878906 236.949219 177.160156 C 236.949219 177.261719 236.925781 177.34375 236.898438 177.433594 C 236.898438 177.511719 236.898438 177.589844 236.886719 177.667969 C 235.90625 183.929688 239.648438 186.4375 241.167969 191.886719 C 242.011719 194.917969 242.242188 197.910156 240.34375 200.566406 C 239.480469 201.753906 238.050781 202.449219 236.378906 202.773438 C 236.351562 211.371094 237.695312 219.90625 237.492188 228.519531 C 237.386719 232.722656 237.148438 237.257812 234.238281 240.316406 C 236.9375 246.132812 233.351562 260.15625 227.625 262.746094 C 224.5625 264.128906 217.027344 262.734375 215.515625 265.855469 C 214.398438 268.167969 213.351562 270.027344 211.207031 271.53125 C 205.480469 275.527344 198.695312 277.761719 192.054688 279.746094 C 177.683594 284.046875 161.078125 287.757812 146.15625 283.96875 C 138.808594 282.097656 131.90625 278.53125 125.925781 273.882812 C 122.273438 271.054688 119.074219 267.726562 115.261719 265.125 C 112.90625 263.503906 110.039062 261.839844 108.28125 259.539062 C 102.113281 251.464844 111.777344 239.746094 117.019531 233.871094 C 120.644531 229.800781 124.695312 224.640625 130.207031 223.378906 C 135.148438 222.242188 139.195312 227.054688 141.785156 230.402344 C 147.207031 237.445312 153.789062 238.421875 162.140625 239.984375 C 170.863281 241.640625 179.351562 241.898438 185.128906 234.035156 C 186.710938 231.167969 187.246094 224.480469 190.453125 222.308594 C 190.195312 220.863281 190.054688 219.398438 190.425781 218.0625 C 190.789062 216.703125 194.894531 214.128906 194.386719 213.214844 C 191.386719 207.871094 191.953125 203.207031 191.058594 197.371094 C 191.046875 197.269531 191.046875 197.191406 191.046875 197.101562 C 190.664062 197.089844 190.285156 197.078125 189.929688 197.0625 C 188.863281 197.039062 188.070312 196.226562 188.03125 195.167969 C 187.585938 183.511719 188.703125 171.890625 188.894531 160.234375 C 188.90625 159.226562 189.738281 158.3125 190.789062 158.339844 C 192.878906 158.390625 189.917969 148.953125 189.976562 147.53125 C 190.222656 142.773438 191.109375 138.070312 191.296875 133.300781 C 191.4375 130.003906 190.105469 129.613281 186.828125 129.613281 C 184.835938 129.601562 182.847656 129.664062 180.871094 129.824219 C 177.238281 130.132812 173.652344 130.410156 170.019531 130.546875 C 165.21875 130.726562 152.816406 133.730469 152.816406 125.71875 C 152.816406 123.09375 153.351562 122.269531 152.121094 119.578125 C 151.375 117.933594 150.863281 116.292969 150.421875 114.535156 C 149.628906 111.335938 151.019531 108.898438 151.980469 105.949219 C 153.464844 101.464844 154.4375 91.152344 159.859375 89.285156 C 164.265625 87.765625 171.199219 87.222656 173.601562 91.429688 C 186.609375 90.125 199.691406 90.292969 212.75 90.890625 C 215.65625 89.105469 221.101562 90.09375 223.777344 90.316406 C 231.386719 90.933594 238.953125 89.976562 246.617188 90.890625 C 254.792969 91.847656 262.953125 91.808594 271.175781 92.1875 C 272 92.226562 272.804688 92.734375 273.007812 93.574219 " fill-opacity="1" fill-rule="nonzero"/><path fill="rgb(0%, 0%, 0%)" d="M 167.128906 118.921875 C 167.382812 118.960938 167.839844 117.414062 166.910156 115.152344 C 166.660156 114.609375 166.355469 114.007812 165.847656 113.433594 C 165.351562 112.863281 164.683594 112.285156 163.738281 111.996094 C 162.769531 111.699219 161.683594 111.867188 160.761719 112.363281 C 160.542969 112.484375 160.253906 112.636719 160.109375 112.761719 L 159.636719 113.144531 C 159.183594 113.539062 158.90625 113.867188 158.589844 114.296875 C 157.988281 115.164062 157.703125 116.292969 157.804688 117.304688 C 157.894531 118.335938 158.367188 119.160156 158.824219 119.867188 C 159.820312 121.222656 161.039062 122.03125 162.113281 122.546875 C 163.203125 123.039062 164.140625 123.238281 164.863281 123.226562 C 165.519531 123.214844 165.847656 123.054688 165.863281 122.925781 C 165.886719 122.765625 165.519531 122.636719 164.960938 122.40625 C 164.46875 122.191406 163.699219 121.8125 162.859375 121.234375 C 162.035156 120.652344 161.121094 119.828125 160.464844 118.78125 C 160.1875 118.246094 159.898438 117.683594 159.898438 117.109375 C 159.886719 116.558594 159.996094 116.011719 160.367188 115.492188 C 160.542969 115.253906 160.808594 114.953125 160.972656 114.785156 L 161.429688 114.40625 C 161.59375 114.257812 161.683594 114.269531 161.796875 114.179688 C 162.261719 113.917969 162.785156 113.789062 163.226562 113.890625 C 164.195312 114.101562 165.039062 115.042969 165.570312 115.84375 C 166.671875 117.539062 166.800781 118.921875 167.128906 118.921875 Z M 174.84375 113.671875 C 174.871094 113.171875 174.726562 112.511719 174.285156 111.996094 C 173.390625 110.96875 172.160156 110.820312 171.070312 110.839844 C 169.964844 110.921875 168.953125 111.1875 168.070312 111.878906 C 167.632812 112.207031 167.167969 112.804688 167.167969 113.550781 C 167.195312 114.285156 167.601562 114.765625 167.890625 114.988281 C 168.5 115.476562 169.066406 115.632812 169.421875 115.683594 C 169.789062 115.722656 170.019531 115.683594 170.09375 115.542969 C 170.273438 115.277344 169.5 114.71875 169.003906 113.96875 C 168.863281 113.777344 168.902344 113.621094 168.9375 113.632812 C 168.964844 113.660156 169.015625 113.582031 169.234375 113.460938 C 169.660156 113.210938 170.433594 113.003906 171.175781 112.964844 C 171.921875 112.925781 172.617188 113.109375 172.828125 113.308594 C 172.945312 113.398438 173.007812 113.511719 173.066406 113.710938 C 173.09375 113.917969 173.09375 114.167969 173.054688 114.417969 C 172.867188 115.445312 172.566406 116.230469 172.828125 116.390625 C 173.046875 116.542969 173.78125 116.164062 174.488281 114.914062 C 174.65625 114.585938 174.792969 114.179688 174.84375 113.671875 Z M 209.359375 127.132812 C 209.589844 127.132812 210.054688 125.769531 209.617188 123.394531 C 209.539062 123.105469 209.449219 122.789062 209.332031 122.457031 C 209.183594 122.152344 209.070312 121.800781 208.832031 121.484375 C 208.4375 120.816406 207.710938 120.179688 206.828125 119.839844 C 204.980469 119.148438 202.898438 119.828125 201.417969 121.003906 C 199.925781 122.207031 198.855469 123.902344 198.746094 125.734375 C 198.707031 126.652344 198.972656 127.523438 199.363281 128.21875 C 199.582031 128.546875 199.796875 128.867188 200.058594 129.105469 C 200.304688 129.371094 200.570312 129.574219 200.839844 129.75 C 201.863281 130.449219 202.835938 130.699219 203.453125 130.800781 C 204.078125 130.878906 204.445312 130.851562 204.496094 130.710938 C 204.652344 130.382812 203.203125 129.902344 201.796875 128.578125 C 201.089844 127.90625 200.582031 126.972656 200.710938 125.886719 C 200.859375 124.792969 201.617188 123.566406 202.746094 122.6875 C 203.859375 121.789062 205.230469 121.394531 206.183594 121.699219 C 207.144531 121.96875 207.800781 122.925781 208.179688 123.835938 C 208.894531 125.734375 209.015625 127.160156 209.359375 127.132812 Z M 214.542969 177.421875 C 214.582031 177.273438 214.605469 177.082031 214.617188 176.871094 C 214.59375 176.636719 214.554688 176.386719 214.488281 176.113281 C 214.4375 175.828125 214.25 175.527344 214.085938 175.210938 C 213.847656 174.921875 213.574219 174.570312 213.132812 174.351562 C 212.308594 173.863281 211.109375 173.894531 210.234375 174.441406 C 209.34375 174.960938 208.804688 175.796875 208.585938 176.582031 C 208.398438 177.371094 208.449219 178.082031 208.609375 178.636719 C 208.714844 178.925781 208.816406 179.167969 208.914062 179.367188 C 209.03125 179.523438 209.144531 179.664062 209.242188 179.761719 C 209.460938 179.964844 209.636719 180.050781 209.777344 180.003906 C 209.917969 179.953125 209.996094 179.773438 210.035156 179.484375 C 210.039062 179.332031 210.039062 179.167969 210.035156 178.964844 C 210.066406 178.804688 210.09375 178.625 210.105469 178.4375 C 210.183594 177.679688 210.5625 176.703125 211.308594 176.273438 C 211.675781 176.074219 212 176.035156 212.273438 176.125 C 212.4375 176.136719 212.566406 176.273438 212.726562 176.335938 C 212.839844 176.492188 213.023438 176.582031 213.125 176.753906 C 213.234375 176.90625 213.351562 177.054688 213.460938 177.183594 C 213.550781 177.339844 213.628906 177.472656 213.71875 177.578125 C 213.890625 177.789062 214.058594 177.917969 214.214844 177.902344 C 214.347656 177.878906 214.464844 177.730469 214.542969 177.421875 Z M 217.476562 122.179688 C 217.734375 121.433594 217.683594 120.246094 216.945312 119.300781 C 216.222656 118.351562 215.050781 117.785156 213.792969 117.695312 C 212.539062 117.59375 211.109375 118.113281 210.441406 119.261719 C 209.800781 120.386719 209.984375 121.460938 210.207031 122.152344 C 210.753906 123.582031 211.4375 124.074219 211.675781 123.972656 C 211.972656 123.863281 211.742188 122.976562 211.6875 121.863281 C 211.664062 121.292969 211.792969 120.6875 212.082031 120.347656 C 212.367188 119.996094 212.933594 119.777344 213.652344 119.816406 C 214.363281 119.867188 215.050781 120.15625 215.425781 120.546875 C 215.816406 120.941406 215.984375 121.421875 215.984375 121.941406 C 215.996094 122.988281 215.617188 123.8125 215.894531 123.972656 C 216.023438 124.0625 216.234375 123.964844 216.550781 123.695312 C 216.859375 123.417969 217.253906 122.964844 217.476562 122.179688 Z M 226.628906 150.449219 C 226.699219 150.0625 226.6875 149.558594 226.5 148.984375 C 226.292969 148.445312 225.914062 147.808594 225.152344 147.421875 C 224.785156 147.230469 224.335938 147.117188 223.859375 147.191406 C 223.421875 147.230469 222.988281 147.457031 222.71875 147.726562 C 222.179688 148.277344 222.074219 148.851562 222.050781 149.28125 C 222.050781 149.503906 222.0625 149.703125 222.101562 149.859375 C 222.140625 149.988281 222.203125 150.109375 222.253906 150.199219 C 222.371094 150.390625 222.507812 150.5 222.660156 150.515625 C 222.804688 150.527344 222.953125 150.445312 223.09375 150.261719 C 223.152344 150.171875 223.226562 150.0625 223.292969 149.9375 C 223.371094 149.832031 223.445312 149.742188 223.523438 149.648438 C 223.660156 149.453125 223.859375 149.253906 223.976562 149.253906 C 224.089844 149.242188 224.039062 149.28125 224.195312 149.324219 C 224.523438 149.46875 224.914062 150.0625 225.113281 150.566406 C 225.359375 151.074219 225.507812 151.515625 225.824219 151.566406 C 226.082031 151.621094 226.488281 151.257812 226.628906 150.449219 Z M 226.382812 176.804688 C 226.917969 176.335938 227.472656 175.300781 227.414062 173.972656 C 227.355469 172.6875 226.777344 171.132812 225.386719 169.96875 C 224.671875 169.398438 223.777344 168.96875 222.675781 168.910156 C 222.402344 168.910156 222.050781 168.910156 221.835938 168.929688 L 221.230469 169.058594 L 221.1875 169.070312 L 221.175781 169.070312 L 221.066406 169.09375 L 221.050781 169.109375 L 220.949219 169.148438 L 220.761719 169.222656 L 220.382812 169.398438 C 220.105469 169.511719 219.910156 169.691406 219.6875 169.851562 C 218.824219 170.535156 218.289062 171.394531 217.933594 172.242188 C 217.554688 173.078125 217.402344 173.941406 217.292969 174.742188 C 217.136719 176.375 217.425781 177.917969 218.152344 179.042969 C 218.875 180.203125 220.046875 180.648438 220.828125 180.609375 C 221.484375 180.53125 221.796875 180.359375 221.8125 180.21875 C 221.824219 180.0625 221.445312 179.953125 220.859375 179.785156 C 220.421875 179.574219 219.808594 179.15625 219.480469 178.320312 C 219.140625 177.488281 219.011719 176.285156 219.234375 175.011719 C 219.378906 174.375 219.546875 173.695312 219.847656 173.089844 C 220.125 172.46875 220.53125 171.890625 221.011719 171.535156 C 221.128906 171.433594 221.246094 171.320312 221.367188 171.28125 L 221.558594 171.195312 L 221.644531 171.15625 L 221.695312 171.132812 L 222.269531 171.003906 C 222.441406 170.964844 222.507812 171.015625 222.636719 170.992188 C 223.136719 171.003906 223.722656 171.203125 224.179688 171.523438 C 225.128906 172.191406 225.714844 173.238281 225.902344 174.140625 C 226.34375 176.023438 225.128906 177.015625 225.398438 177.273438 C 225.476562 177.371094 225.867188 177.289062 226.382812 176.804688 Z M 227.382812 142.007812 C 227.640625 141.0625 227.425781 139.597656 226.449219 138.550781 C 225.496094 137.484375 224.078125 136.878906 222.570312 136.75 C 221.078125 136.628906 219.46875 137.09375 218.457031 138.230469 C 217.949219 138.777344 217.671875 139.46875 217.59375 140.09375 C 217.492188 140.710938 217.566406 141.261719 217.671875 141.730469 C 217.898438 142.65625 218.289062 143.335938 218.59375 143.703125 C 218.90625 144.082031 219.140625 144.261719 219.28125 144.199219 C 219.597656 144.082031 219.191406 142.984375 219.164062 141.542969 C 219.179688 140.824219 219.324219 140.042969 219.886719 139.570312 C 220.421875 139.089844 221.367188 138.789062 222.417969 138.890625 C 223.445312 138.96875 224.433594 139.339844 225.023438 139.914062 C 225.636719 140.457031 225.882812 141.140625 225.882812 141.832031 C 225.882812 143.234375 225.296875 144.25 225.609375 144.410156 C 225.726562 144.488281 225.976562 144.347656 226.34375 143.980469 C 226.6875 143.601562 227.15625 142.996094 227.382812 142.007812 Z M 229.636719 101.703125 C 229.75 101.175781 229.867188 100.378906 229.601562 99.34375 C 229.472656 98.824219 229.210938 98.253906 228.765625 97.726562 C 228.308594 97.191406 227.640625 96.789062 226.890625 96.589844 C 225.386719 96.171875 223.738281 96.550781 222.371094 97.410156 C 221.011719 98.265625 219.949219 99.648438 219.757812 101.203125 C 219.519531 102.757812 220.265625 104.054688 220.921875 104.785156 C 221.617188 105.539062 222.339844 105.960938 222.824219 106.167969 C 223.316406 106.355469 223.621094 106.40625 223.710938 106.285156 C 223.929688 106.015625 222.953125 105.242188 222.140625 103.894531 C 221.761719 103.207031 221.46875 102.363281 221.695312 101.53125 C 221.875 100.695312 222.558594 99.808594 223.523438 99.214844 C 224.472656 98.601562 225.597656 98.328125 226.433594 98.496094 C 227.273438 98.617188 227.839844 99.179688 228.179688 99.859375 C 228.539062 100.535156 228.675781 101.226562 228.804688 101.703125 C 228.914062 102.183594 229.054688 102.472656 229.199219 102.492188 C 229.34375 102.5 229.5 102.238281 229.636719 101.703125 Z M 239.441406 102.78125 C 239.671875 101.984375 239.71875 100.875 239.242188 99.78125 C 238.785156 98.683594 237.832031 97.714844 236.609375 97.140625 C 235.390625 96.589844 233.808594 96.5 232.640625 97.398438 C 232.070312 97.824219 231.753906 98.433594 231.597656 98.960938 C 231.4375 99.492188 231.4375 99.976562 231.476562 100.390625 C 231.6875 102.054688 232.332031 102.757812 232.578125 102.707031 C 232.894531 102.640625 232.785156 101.644531 232.984375 100.445312 C 233.085938 99.832031 233.351562 99.214844 233.78125 98.984375 C 234.199219 98.734375 234.972656 98.734375 235.734375 99.089844 C 236.492188 99.441406 237.125 100.011719 237.464844 100.628906 C 237.84375 101.246094 237.949219 101.933594 237.949219 102.539062 C 237.949219 103.765625 237.554688 104.652344 237.859375 104.800781 C 238.050781 104.941406 238.953125 104.394531 239.441406 102.78125 Z M 251.945312 108.238281 C 251.960938 107.414062 251.542969 106.289062 250.589844 105.558594 C 249.65625 104.8125 248.359375 104.511719 247.078125 104.703125 C 245.804688 104.878906 244.5625 105.621094 244 106.746094 C 243.410156 107.871094 243.589844 108.996094 243.851562 109.722656 C 244.128906 110.433594 244.507812 110.96875 244.800781 111.238281 C 245.101562 111.5 245.320312 111.617188 245.460938 111.550781 C 245.738281 111.398438 245.410156 110.519531 245.320312 109.375 C 245.207031 108.191406 245.777344 107.042969 247.402344 106.8125 C 248.160156 106.695312 248.925781 106.835938 249.4375 107.164062 C 249.96875 107.464844 250.285156 107.921875 250.453125 108.441406 C 250.78125 109.488281 250.613281 110.414062 250.941406 110.484375 C 251.160156 110.582031 251.910156 109.90625 251.945312 108.238281 Z M 263.660156 109.761719 C 264.007812 108.859375 264.039062 107.753906 263.75 106.707031 C 263.621094 106.179688 263.34375 105.699219 263.054688 105.230469 C 262.898438 105.003906 262.6875 104.785156 262.496094 104.574219 C 262.292969 104.332031 262.089844 104.144531 261.925781 104.027344 L 261.378906 103.605469 L 261.316406 103.554688 L 261.207031 103.476562 L 261.195312 103.476562 L 261.179688 103.464844 L 260.949219 103.347656 L 260.59375 103.160156 C 260.144531 102.90625 259.582031 102.796875 259.074219 102.679688 C 258.011719 102.472656 256.910156 102.707031 256.046875 103.148438 C 254.253906 104.066406 253.453125 105.878906 253.441406 107.265625 C 253.402344 108.695312 253.976562 109.707031 254.4375 110.285156 C 254.921875 110.808594 255.261719 110.992188 255.378906 110.921875 C 255.5 110.832031 255.378906 110.453125 255.140625 109.832031 C 254.972656 109.265625 254.742188 108.390625 254.949219 107.414062 C 255.109375 106.457031 255.796875 105.371094 256.898438 104.914062 C 257.988281 104.414062 259.417969 104.671875 260.59375 105.699219 C 261.734375 106.613281 262.128906 107.960938 261.785156 109.164062 C 261.445312 110.390625 260.554688 111.371094 259.726562 112.007812 C 257.972656 113.308594 256.429688 113.308594 256.429688 113.648438 C 256.429688 113.789062 256.796875 113.957031 257.515625 114.011719 C 258.238281 114.039062 259.332031 113.917969 260.515625 113.28125 C 261.675781 112.664062 263.003906 111.566406 263.660156 109.761719 Z M 269.601562 95.902344 C 270.769531 101.871094 270.3125 107.753906 269.234375 113.75 C 268.792969 116.230469 268.15625 118.664062 267.496094 121.082031 C 266.511719 124.730469 262.914062 124.125 259.9375 123.671875 C 255.667969 123.039062 251.566406 121.761719 247.207031 122.0625 C 245.902344 122.152344 244.714844 122.804688 243.558594 123.34375 C 240.910156 124.609375 238.316406 124.113281 235.773438 125.066406 C 228.765625 127.640625 232.378906 137.183594 231.78125 142.917969 C 230.574219 154.433594 234.253906 165.53125 233.15625 176.964844 C 232.816406 178.988281 232.09375 181.59375 232.785156 183.578125 C 234.226562 187.824219 237.632812 191.214844 238.0625 195.804688 C 238.496094 200.277344 232.796875 199.554688 228.867188 197.949219 C 228.554688 197.46875 228.03125 197.28125 227.472656 197.308594 C 226.523438 196.800781 225.789062 196.265625 225.460938 195.816406 C 223.761719 193.386719 223.34375 191.113281 220.910156 189.167969 C 218.109375 186.945312 210.550781 183.820312 207.128906 186.171875 C 204.710938 187.824219 203.136719 191.234375 200.402344 192.289062 C 198.050781 193.195312 194.65625 193.351562 191.792969 193.3125 C 191.523438 182.84375 192.398438 172.398438 192.640625 161.929688 C 197.214844 160.769531 195.421875 154.433594 194.277344 150.605469 C 192.917969 146.09375 194.527344 140.53125 194.910156 135.871094 C 195.121094 133.1875 195.996094 129.382812 193.640625 127.410156 C 188.675781 123.265625 178.03125 126.554688 172.234375 126.714844 C 169.738281 126.78125 156.15625 128.636719 156.71875 125.148438 C 157.007812 123.265625 157.582031 122.558594 156.957031 120.703125 C 156.023438 117.917969 154.375 115.75 153.980469 112.691406 C 153.535156 109.386719 156.601562 103.765625 157.542969 100.507812 C 158.554688 96.953125 159.390625 92.695312 164.027344 92.1875 C 166.800781 91.898438 170.035156 91.691406 170.703125 94.691406 C 171.398438 97.839844 169.917969 102.757812 172.789062 105.230469 C 174.414062 106.636719 176.023438 107.394531 178.03125 108.101562 C 179.570312 108.628906 178.984375 109.277344 179.847656 111.070312 C 185.296875 122.386719 204.21875 120.347656 206.253906 108.140625 C 210.066406 107.910156 213.730469 107.042969 215.410156 103.160156 C 216.234375 101.246094 215.828125 99.34375 215.089844 97.507812 C 212.996094 92.394531 219.546875 93.792969 222.203125 93.980469 C 229.617188 94.488281 236.949219 93.792969 244.355469 94.4375 C 252.808594 95.183594 261.15625 95.527344 269.601562 95.902344 " fill-opacity="1" fill-rule="nonzero"/><path fill="rgb(0%, 0%, 0%)" d="M 263.75 106.707031 C 264.039062 107.753906 264.007812 108.859375 263.660156 109.761719 C 263.003906 111.566406 261.675781 112.664062 260.515625 113.28125 C 259.332031 113.917969 258.238281 114.039062 257.515625 114.011719 C 256.796875 113.957031 256.429688 113.789062 256.429688 113.648438 C 256.429688 113.308594 257.972656 113.308594 259.726562 112.007812 C 260.554688 111.371094 261.445312 110.390625 261.785156 109.164062 C 262.128906 107.960938 261.734375 106.613281 260.59375 105.699219 C 259.417969 104.671875 257.988281 104.414062 256.898438 104.914062 C 255.796875 105.371094 255.109375 106.457031 254.949219 107.414062 C 254.742188 108.390625 254.972656 109.265625 255.140625 109.832031 C 255.378906 110.453125 255.5 110.832031 255.378906 110.921875 C 255.261719 110.992188 254.921875 110.808594 254.4375 110.285156 C 253.976562 109.707031 253.402344 108.695312 253.441406 107.265625 C 253.453125 105.878906 254.253906 104.066406 256.046875 103.148438 C 256.910156 102.707031 258.011719 102.472656 259.074219 102.679688 C 259.582031 102.796875 260.144531 102.90625 260.59375 103.160156 L 260.949219 103.347656 L 261.179688 103.464844 L 261.195312 103.476562 L 261.207031 103.476562 L 261.316406 103.554688 L 261.378906 103.605469 L 261.925781 104.027344 C 262.089844 104.144531 262.292969 104.332031 262.496094 104.574219 C 262.6875 104.785156 262.898438 105.003906 263.054688 105.230469 C 263.34375 105.699219 263.621094 106.179688 263.75 106.707031 " fill-opacity="1" fill-rule="nonzero"/><path fill="rgb(0%, 0%, 0%)" d="M 250.589844 105.558594 C 251.542969 106.289062 251.960938 107.414062 251.945312 108.238281 C 251.910156 109.90625 251.160156 110.582031 250.941406 110.484375 C 250.613281 110.414062 250.78125 109.488281 250.453125 108.441406 C 250.285156 107.921875 249.96875 107.464844 249.4375 107.164062 C 248.925781 106.835938 248.160156 106.695312 247.402344 106.8125 C 245.777344 107.042969 245.207031 108.191406 245.320312 109.375 C 245.410156 110.519531 245.738281 111.398438 245.460938 111.550781 C 245.320312 111.617188 245.101562 111.5 244.800781 111.238281 C 244.507812 110.96875 244.128906 110.433594 243.851562 109.722656 C 243.589844 108.996094 243.410156 107.871094 244 106.746094 C 244.5625 105.621094 245.804688 104.878906 247.078125 104.703125 C 248.359375 104.511719 249.65625 104.8125 250.589844 105.558594 " fill-opacity="1" fill-rule="nonzero"/><path fill="rgb(0%, 0%, 0%)" d="M 239.242188 99.78125 C 239.71875 100.875 239.671875 101.984375 239.441406 102.78125 C 238.953125 104.394531 238.050781 104.941406 237.859375 104.800781 C 237.554688 104.652344 237.949219 103.765625 237.949219 102.539062 C 237.949219 101.933594 237.84375 101.246094 237.464844 100.628906 C 237.125 100.011719 236.492188 99.441406 235.734375 99.089844 C 234.972656 98.734375 234.199219 98.734375 233.78125 98.984375 C 233.351562 99.214844 233.085938 99.832031 232.984375 100.445312 C 232.785156 101.644531 232.894531 102.640625 232.578125 102.707031 C 232.332031 102.757812 231.6875 102.054688 231.476562 100.390625 C 231.4375 99.976562 231.4375 99.492188 231.597656 98.960938 C 231.753906 98.433594 232.070312 97.824219 232.640625 97.398438 C 233.808594 96.5 235.390625 96.589844 236.609375 97.140625 C 237.832031 97.714844 238.785156 98.683594 239.242188 99.78125 " fill-opacity="1" fill-rule="nonzero"/><path fill="rgb(0%, 0%, 0%)" d="M 233.628906 223.40625 C 233.613281 227.285156 234.765625 234.160156 231.804688 237.445312 C 231.007812 236.878906 230.117188 236.488281 229.183594 236.308594 C 230.5625 230.808594 229.800781 224.859375 229.945312 219.230469 C 230.066406 213.609375 230.117188 208.0625 229.589844 202.5 C 230.535156 202.71875 231.554688 202.878906 232.578125 202.957031 C 232.589844 209.792969 233.667969 216.550781 233.628906 223.40625 " fill-opacity="1" fill-rule="nonzero"/><path fill="rgb(0%, 0%, 0%)" d="M 127.367188 251.921875 C 127.40625 251.125 127.179688 249.972656 126.53125 248.695312 C 125.886719 247.429688 124.746094 246.015625 122.847656 245.179688 C 121.894531 244.789062 120.710938 244.640625 119.558594 244.941406 C 118.984375 245.066406 118.417969 245.375 117.859375 245.726562 C 117.636719 245.875 117.476562 246.027344 117.277344 246.195312 L 117.136719 246.304688 L 117.070312 246.371094 L 117.046875 246.382812 L 116.941406 246.484375 L 116.941406 246.496094 L 116.90625 246.53125 L 116.628906 246.875 C 115.855469 247.757812 115.371094 248.933594 115.28125 250.070312 C 115.171875 251.207031 115.410156 252.304688 115.828125 253.207031 C 116.640625 255.042969 118.011719 256.210938 119.234375 256.925781 C 120.492188 257.632812 121.628906 257.882812 122.46875 257.855469 C 123.253906 257.832031 123.632812 257.652344 123.644531 257.53125 C 123.660156 257.363281 123.226562 257.246094 122.546875 257.035156 C 121.933594 256.824219 121.011719 256.40625 120.074219 255.671875 C 119.164062 254.941406 118.148438 253.847656 117.652344 252.460938 C 117.375 251.777344 117.257812 251.019531 117.363281 250.289062 C 117.453125 249.570312 117.742188 248.835938 118.289062 248.226562 L 118.476562 247.988281 L 118.488281 247.960938 L 118.5 247.949219 L 118.644531 247.820312 C 118.828125 247.671875 119.035156 247.492188 119.195312 247.363281 C 119.492188 247.230469 119.742188 247.039062 120.109375 246.949219 C 120.78125 246.761719 121.476562 246.800781 122.152344 247.011719 C 123.480469 247.507812 124.554688 248.503906 125.242188 249.480469 C 126.671875 251.4375 126.671875 253.101562 127.027344 253.101562 C 127.15625 253.101562 127.328125 252.683594 127.367188 251.921875 Z M 134.285156 247.609375 C 134.308594 246.875 134.109375 245.792969 133.207031 244.980469 C 132.332031 244.171875 130.992188 243.855469 129.761719 244.121094 C 128.535156 244.371094 127.382812 245.21875 126.988281 246.421875 C 126.582031 247.636719 127.039062 248.667969 127.433594 249.261719 C 128.332031 250.5 129.15625 250.746094 129.34375 250.578125 C 129.582031 250.371094 129.09375 249.613281 128.785156 248.59375 C 128.445312 247.519531 128.773438 246.542969 130.207031 246.203125 C 131.636719 245.925781 132.527344 246.722656 132.789062 247.769531 C 133.074219 248.8125 133.035156 249.664062 133.363281 249.730469 C 133.589844 249.792969 134.214844 249.125 134.285156 247.609375 Z M 153.363281 274.390625 C 155.070312 272.707031 155.5 271.355469 155.3125 271.214844 C 155.042969 271.003906 154.109375 272.0625 152.449219 273.175781 C 151.613281 273.707031 150.550781 274.0625 149.710938 273.617188 C 148.84375 273.226562 148.082031 271.984375 147.703125 270.574219 C 147.304688 269.160156 147.257812 267.667969 147.511719 266.492188 C 147.761719 265.277344 148.386719 264.496094 149.144531 264.210938 C 150.769531 263.671875 152.269531 264.429688 152.359375 264.050781 C 152.410156 263.921875 152.160156 263.660156 151.636719 263.304688 C 151.058594 263.015625 150.117188 262.507812 148.753906 262.746094 C 148.0625 262.835938 147.355469 263.265625 146.800781 263.839844 C 146.214844 264.429688 145.863281 265.1875 145.609375 265.972656 C 145.140625 267.578125 145.152344 269.359375 145.648438 271.136719 C 145.898438 272.039062 146.253906 272.886719 146.789062 273.65625 C 147.316406 274.402344 148.039062 275.082031 148.953125 275.4375 C 149.855469 275.789062 150.851562 275.746094 151.585938 275.449219 C 151.964844 275.328125 152.28125 275.132812 152.589844 274.96875 C 152.855469 274.769531 153.105469 274.570312 153.363281 274.390625 Z M 160.164062 261.519531 C 160.414062 261.449219 160.542969 260.679688 159.925781 259.539062 C 159.621094 258.996094 159.023438 258.363281 158.148438 258.011719 C 157.265625 257.632812 156.15625 257.644531 155.199219 258.011719 C 154.230469 258.390625 153.421875 259.019531 152.957031 259.90625 C 152.710938 260.332031 152.578125 260.863281 152.640625 261.382812 C 152.6875 261.90625 152.945312 262.367188 153.234375 262.636719 C 153.828125 263.164062 154.375 263.214844 154.742188 263.253906 C 155.054688 263.214844 155.261719 263.136719 155.3125 262.996094 C 155.4375 262.707031 154.664062 262.289062 154.414062 261.6875 C 154.324219 261.398438 154.398438 261.269531 154.636719 260.914062 C 154.894531 260.574219 155.402344 260.222656 155.945312 260.007812 C 157.085938 259.578125 158.042969 259.90625 158.746094 260.484375 C 159.441406 261.070312 159.875 261.648438 160.164062 261.519531 Z M 161.265625 274.046875 C 161.300781 273.757812 161.328125 273.488281 161.328125 273.277344 C 161.289062 273.046875 161.238281 272.859375 161.1875 272.707031 C 161.078125 272.402344 160.949219 272.269531 160.792969 272.269531 C 160.660156 272.28125 160.503906 272.429688 160.355469 272.652344 C 160.292969 272.769531 160.226562 272.910156 160.148438 273.058594 C 160.046875 273.199219 159.949219 273.355469 159.859375 273.515625 C 159.441406 274.136719 158.644531 274.714844 157.621094 274.84375 C 157.125 274.910156 156.667969 274.792969 156.53125 274.691406 C 156.511719 274.664062 156.464844 274.652344 156.429688 274.625 C 156.429688 274.59375 156.402344 274.554688 156.351562 274.503906 C 156.351562 274.375 156.273438 274.222656 156.3125 274.0625 C 156.339844 273.894531 156.3125 273.734375 156.351562 273.554688 C 156.414062 273.367188 156.453125 273.199219 156.472656 273.046875 C 156.511719 272.757812 156.484375 272.570312 156.363281 272.480469 C 156.246094 272.402344 156.046875 272.441406 155.777344 272.597656 C 155.65625 272.652344 155.515625 272.757812 155.359375 272.886719 C 155.210938 273.035156 155.042969 273.289062 154.882812 273.554688 C 154.703125 273.816406 154.636719 274.222656 154.578125 274.625 C 154.605469 274.859375 154.636719 275.109375 154.703125 275.367188 C 154.792969 275.589844 154.941406 275.828125 155.109375 276.046875 C 155.855469 276.875 156.917969 277.054688 157.84375 276.953125 C 158.777344 276.835938 159.636719 276.453125 160.226562 275.878906 C 160.515625 275.601562 160.761719 275.289062 160.933594 274.96875 C 161.078125 274.640625 161.226562 274.351562 161.265625 274.046875 Z M 175.359375 254.15625 C 175.5 254.09375 175.515625 253.847656 175.417969 253.476562 C 175.378906 253.269531 175.289062 253.042969 175.183594 252.773438 C 175.042969 252.523438 174.84375 252.25 174.597656 251.960938 C 174.398438 251.625 173.96875 251.425781 173.589844 251.148438 C 173.375 251.019531 173.125 250.96875 172.867188 250.878906 C 172.601562 250.777344 172.332031 250.757812 172.042969 250.765625 C 170.890625 250.730469 169.671875 251.308594 168.875 252.261719 C 168.070312 253.207031 167.695312 254.484375 167.914062 255.621094 C 167.941406 255.898438 168.019531 256.167969 168.152344 256.40625 C 168.269531 256.644531 168.371094 256.886719 168.519531 257.074219 C 168.863281 257.414062 169.121094 257.78125 169.488281 257.972656 C 169.839844 258.160156 170.15625 258.339844 170.421875 258.429688 C 170.691406 258.472656 170.902344 258.511719 171.097656 258.527344 C 171.476562 258.550781 171.714844 258.5 171.777344 258.363281 C 171.84375 258.238281 171.714844 258.023438 171.4375 257.765625 C 171.296875 257.644531 171.117188 257.492188 170.917969 257.335938 C 170.753906 257.164062 170.625 256.96875 170.445312 256.796875 C 169.738281 256.039062 169.570312 254.773438 170.496094 253.636719 C 171.488281 252.539062 172.738281 252.484375 173.613281 253.089844 C 173.832031 253.257812 174.058594 253.371094 174.25 253.507812 C 174.414062 253.660156 174.566406 253.804688 174.714844 253.914062 C 175.011719 254.117188 175.238281 254.21875 175.359375 254.15625 Z M 188.019531 248.417969 C 188.101562 247.820312 188.179688 246.921875 187.785156 245.792969 C 187.613281 245.21875 187.21875 244.597656 186.632812 244.09375 C 186.027344 243.574219 185.203125 243.296875 184.367188 243.222656 C 182.699219 243.097656 181.078125 243.714844 179.648438 244.640625 C 178.226562 245.585938 177.070312 246.800781 176.375 248.214844 C 176.0625 248.933594 175.84375 249.703125 175.882812 250.488281 C 175.933594 251.257812 176.222656 251.976562 176.652344 252.472656 C 177.492188 253.457031 178.449219 253.675781 179.035156 253.828125 C 179.621094 253.898438 179.957031 253.875 180.015625 253.738281 C 180.1875 253.410156 178.707031 252.941406 177.882812 251.597656 C 177.691406 251.257812 177.632812 250.890625 177.65625 250.476562 C 177.683594 250.058594 177.871094 249.59375 178.132812 249.113281 C 178.695312 248.148438 179.652344 247.179688 180.820312 246.421875 C 181.980469 245.675781 183.253906 245.179688 184.285156 245.179688 C 185.308594 245.167969 185.992188 245.664062 186.410156 246.40625 C 186.851562 247.140625 187.027344 247.925781 187.179688 248.457031 C 187.316406 248.984375 187.457031 249.300781 187.613281 249.3125 C 187.753906 249.3125 187.890625 249.011719 188.019531 248.417969 Z M 201.078125 262.195312 C 201.289062 261.621094 201.558594 260.753906 201.40625 259.539062 C 201.328125 258.941406 201.117188 258.25 200.605469 257.632812 C 200.125 257.007812 199.363281 256.507812 198.539062 256.289062 C 196.871094 255.847656 195.042969 256.226562 193.484375 257.203125 C 192.71875 257.710938 192.03125 258.363281 191.566406 259.160156 C 191.082031 259.972656 190.863281 260.914062 190.941406 261.777344 C 191.070312 263.554688 192.121094 264.679688 192.90625 265.4375 C 194.644531 266.902344 195.90625 267.199219 196.0625 267.007812 C 196.261719 266.742188 195.171875 265.882812 194.007812 264.417969 C 193.460938 263.671875 192.867188 262.695312 192.90625 261.699219 C 192.894531 260.730469 193.53125 259.6875 194.644531 258.996094 C 195.746094 258.300781 197.070312 258.011719 198.078125 258.199219 C 199.0625 258.390625 199.667969 259.03125 199.925781 259.867188 C 200.214844 260.691406 200.214844 261.5 200.253906 262.054688 C 200.265625 262.625 200.34375 262.964844 200.492188 262.996094 C 200.632812 263.035156 200.839844 262.757812 201.078125 262.195312 Z M 206.949219 259.777344 C 207.128906 259.296875 207.167969 258.589844 206.90625 257.871094 C 206.613281 257.152344 206.003906 256.519531 205.203125 256.167969 C 204.433594 255.808594 203.421875 255.738281 202.585938 256.316406 C 202.164062 256.589844 201.945312 257.023438 201.824219 257.402344 C 201.773438 257.753906 201.707031 258.109375 201.796875 258.378906 C 201.875 258.640625 201.933594 258.90625 202.023438 259.058594 C 202.128906 259.195312 202.230469 259.308594 202.3125 259.398438 C 202.492188 259.59375 202.675781 259.664062 202.808594 259.625 C 202.953125 259.59375 203.054688 259.4375 203.117188 259.1875 C 203.152344 259.058594 203.164062 258.917969 203.175781 258.742188 C 203.203125 258.578125 203.28125 258.472656 203.316406 258.339844 C 203.316406 258.210938 203.453125 258.128906 203.480469 258.023438 C 203.570312 257.984375 203.59375 257.945312 203.648438 257.960938 C 203.722656 257.960938 204.011719 257.960938 204.34375 258.109375 C 205.011719 258.417969 205.371094 258.957031 205.441406 259.566406 C 205.460938 259.714844 205.496094 259.867188 205.507812 260.007812 C 205.507812 260.15625 205.519531 260.285156 205.535156 260.394531 C 205.558594 260.640625 205.636719 260.824219 205.757812 260.890625 C 205.886719 260.96875 206.066406 260.929688 206.28125 260.753906 C 206.394531 260.664062 206.523438 260.550781 206.648438 260.394531 C 206.761719 260.234375 206.851562 260.015625 206.949219 259.777344 Z M 231.179688 244.800781 C 231.398438 249.554688 229.234375 255.871094 225.902344 259.308594 C 224.089844 261.179688 218.734375 259.777344 216.214844 260.195312 C 214.226562 260.523438 213.097656 262.367188 212.238281 263.933594 C 208.128906 271.511719 198.8125 273.683594 191.046875 276.097656 C 182.898438 278.621094 174.527344 280.429688 166.042969 281.265625 C 158.488281 281.996094 150.878906 281.519531 143.609375 279.328125 C 134.726562 276.652344 127.785156 270.429688 120.921875 264.570312 C 117.742188 261.839844 113.484375 260.132812 110.890625 256.746094 C 108.824219 254.039062 111.019531 249.570312 112.269531 247.050781 C 114.871094 241.78125 118.933594 237.15625 123.023438 233.011719 C 126.800781 229.183594 131.128906 224.609375 136.613281 230.050781 C 138.996094 232.414062 140.730469 235.351562 143.152344 237.707031 C 146.976562 241.46875 152.867188 241.882812 157.84375 242.957031 C 169.195312 245.429688 180.304688 246.371094 187.992188 236.460938 C 188.140625 236.320312 188.28125 236.152344 188.410156 235.941406 C 188.558594 235.742188 188.648438 235.523438 188.703125 235.324219 C 189.410156 233.859375 189.800781 232.363281 190.128906 230.722656 C 190.234375 230.28125 190.324219 229.824219 190.425781 229.382812 C 190.589844 227.09375 192.238281 226.425781 195.339844 227.382812 C 195.828125 228.75 195.550781 230.582031 195.277344 231.957031 C 194.503906 235.773438 191.871094 240.792969 195.148438 244.292969 C 199.339844 248.757812 204.664062 248.90625 210.066406 246.824219 C 213.613281 245.457031 217.683594 245.207031 221.078125 243.574219 C 224.613281 241.882812 230.878906 238.34375 231.179688 244.800781 " fill-opacity="1" fill-rule="nonzero"/><path fill="rgb(0%, 0%, 0%)" d="M 229.601562 99.34375 C 229.867188 100.378906 229.75 101.175781 229.636719 101.703125 C 229.5 102.238281 229.34375 102.5 229.199219 102.492188 C 229.054688 102.472656 228.914062 102.183594 228.804688 101.703125 C 228.675781 101.226562 228.539062 100.535156 228.179688 99.859375 C 227.839844 99.179688 227.273438 98.617188 226.433594 98.496094 C 225.597656 98.328125 224.472656 98.601562 223.523438 99.214844 C 222.558594 99.808594 221.875 100.695312 221.695312 101.53125 C 221.46875 102.363281 221.761719 103.207031 222.140625 103.894531 C 222.953125 105.242188 223.929688 106.015625 223.710938 106.285156 C 223.621094 106.40625 223.316406 106.355469 222.824219 106.167969 C 222.339844 105.960938 221.617188 105.539062 220.921875 104.785156 C 220.265625 104.054688 219.519531 102.757812 219.757812 101.203125 C 219.949219 99.648438 221.011719 98.265625 222.371094 97.410156 C 223.738281 96.550781 225.386719 96.171875 226.890625 96.589844 C 227.640625 96.789062 228.308594 97.191406 228.765625 97.726562 C 229.210938 98.253906 229.472656 98.824219 229.601562 99.34375 " fill-opacity="1" fill-rule="nonzero"/><path fill="rgb(0%, 0%, 0%)" d="M 226.449219 138.550781 C 227.425781 139.597656 227.640625 141.0625 227.382812 142.007812 C 227.15625 142.996094 226.6875 143.601562 226.34375 143.980469 C 225.976562 144.347656 225.726562 144.488281 225.609375 144.410156 C 225.296875 144.25 225.882812 143.234375 225.882812 141.832031 C 225.882812 141.140625 225.636719 140.457031 225.023438 139.914062 C 224.433594 139.339844 223.445312 138.96875 222.417969 138.890625 C 221.367188 138.789062 220.421875 139.089844 219.886719 139.570312 C 219.324219 140.042969 219.179688 140.824219 219.164062 141.542969 C 219.191406 142.984375 219.597656 144.082031 219.28125 144.199219 C 219.140625 144.261719 218.90625 144.082031 218.59375 143.703125 C 218.289062 143.335938 217.898438 142.65625 217.671875 141.730469 C 217.566406 141.261719 217.492188 140.710938 217.59375 140.09375 C 217.671875 139.46875 217.949219 138.777344 218.457031 138.230469 C 219.46875 137.09375 221.078125 136.628906 222.570312 136.75 C 224.078125 136.878906 225.496094 137.484375 226.449219 138.550781 " fill-opacity="1" fill-rule="nonzero"/><path fill="rgb(0%, 0%, 0%)" d="M 227.414062 173.972656 C 227.472656 175.300781 226.917969 176.335938 226.382812 176.804688 C 225.867188 177.289062 225.476562 177.371094 225.398438 177.273438 C 225.128906 177.015625 226.34375 176.023438 225.902344 174.140625 C 225.714844 173.238281 225.128906 172.191406 224.179688 171.523438 C 223.722656 171.203125 223.136719 171.003906 222.636719 170.992188 C 222.507812 171.015625 222.441406 170.964844 222.269531 171.003906 L 221.695312 171.132812 L 221.644531 171.15625 L 221.558594 171.195312 L 221.367188 171.28125 C 221.246094 171.320312 221.128906 171.433594 221.011719 171.535156 C 220.53125 171.890625 220.125 172.46875 219.847656 173.089844 C 219.546875 173.695312 219.378906 174.375 219.234375 175.011719 C 219.011719 176.285156 219.140625 177.488281 219.480469 178.320312 C 219.808594 179.15625 220.421875 179.574219 220.859375 179.785156 C 221.445312 179.953125 221.824219 180.0625 221.8125 180.21875 C 221.796875 180.359375 221.484375 180.53125 220.828125 180.609375 C 220.046875 180.648438 218.875 180.203125 218.152344 179.042969 C 217.425781 177.917969 217.136719 176.375 217.292969 174.742188 C 217.402344 173.941406 217.554688 173.078125 217.933594 172.242188 C 218.289062 171.394531 218.824219 170.535156 219.6875 169.851562 C 219.910156 169.691406 220.105469 169.511719 220.382812 169.398438 L 220.761719 169.222656 L 220.949219 169.148438 L 221.050781 169.109375 L 221.066406 169.09375 L 221.175781 169.070312 L 221.1875 169.070312 L 221.230469 169.058594 L 221.835938 168.929688 C 222.050781 168.910156 222.402344 168.910156 222.675781 168.910156 C 223.777344 168.96875 224.671875 169.398438 225.386719 169.96875 C 226.777344 171.132812 227.355469 172.6875 227.414062 173.972656 " fill-opacity="1" fill-rule="nonzero"/><path fill="rgb(0%, 0%, 0%)" d="M 226.5 148.984375 C 226.6875 149.558594 226.699219 150.0625 226.628906 150.449219 C 226.488281 151.257812 226.082031 151.621094 225.824219 151.566406 C 225.507812 151.515625 225.359375 151.074219 225.113281 150.566406 C 224.914062 150.0625 224.523438 149.46875 224.195312 149.324219 C 224.039062 149.28125 224.089844 149.242188 223.976562 149.253906 C 223.859375 149.253906 223.660156 149.453125 223.523438 149.648438 C 223.445312 149.742188 223.371094 149.832031 223.292969 149.9375 C 223.226562 150.0625 223.152344 150.171875 223.09375 150.261719 C 222.953125 150.445312 222.804688 150.527344 222.660156 150.515625 C 222.507812 150.5 222.371094 150.390625 222.253906 150.199219 C 222.203125 150.109375 222.140625 149.988281 222.101562 149.859375 C 222.0625 149.703125 222.050781 149.503906 222.050781 149.28125 C 222.074219 148.851562 222.179688 148.277344 222.71875 147.726562 C 222.988281 147.457031 223.421875 147.230469 223.859375 147.191406 C 224.335938 147.117188 224.785156 147.230469 225.152344 147.421875 C 225.914062 147.808594 226.292969 148.445312 226.5 148.984375 " fill-opacity="1" fill-rule="nonzero"/><path fill="rgb(0%, 0%, 0%)" d="M 225.636719 200.984375 C 226.394531 207.046875 226.292969 213.125 226.144531 219.230469 C 226.003906 225.023438 226.90625 231.378906 225.042969 236.929688 C 224.953125 236.976562 224.863281 237.015625 224.773438 237.066406 C 223.433594 237.8125 220.464844 239.238281 216.96875 240.605469 C 225.882812 227.210938 217.464844 208.5 219.699219 193.285156 C 220.035156 193.664062 220.355469 194.054688 220.605469 194.488281 C 222.253906 197.191406 222.875 199.246094 225.636719 200.984375 " fill-opacity="1" fill-rule="nonzero"/><path fill="rgb(0%, 0%, 0%)" d="M 216.945312 119.300781 C 217.683594 120.246094 217.734375 121.433594 217.476562 122.179688 C 217.253906 122.964844 216.859375 123.417969 216.550781 123.695312 C 216.234375 123.964844 216.023438 124.0625 215.894531 123.972656 C 215.617188 123.8125 215.996094 122.988281 215.984375 121.941406 C 215.984375 121.421875 215.816406 120.941406 215.425781 120.546875 C 215.050781 120.15625 214.363281 119.867188 213.652344 119.816406 C 212.933594 119.777344 212.367188 119.996094 212.082031 120.347656 C 211.792969 120.6875 211.664062 121.292969 211.6875 121.863281 C 211.742188 122.976562 211.972656 123.863281 211.675781 123.972656 C 211.4375 124.074219 210.753906 123.582031 210.207031 122.152344 C 209.984375 121.460938 209.800781 120.386719 210.441406 119.261719 C 211.109375 118.113281 212.539062 117.59375 213.792969 117.695312 C 215.050781 117.785156 216.222656 118.351562 216.945312 119.300781 " fill-opacity="1" fill-rule="nonzero"/><path fill="rgb(0%, 0%, 0%)" d="M 216.285156 190.8125 C 213.171875 206.824219 224.304688 229.394531 210.753906 242.070312 C 210.496094 242.316406 210.351562 242.566406 210.257812 242.828125 C 207.664062 243.511719 205.140625 243.953125 203.015625 243.902344 C 208.714844 240.355469 212.367188 232.515625 212.957031 226.183594 C 214.03125 214.625 214.542969 201.324219 212.09375 189.824219 C 213.519531 189.847656 214.960938 190.1875 216.285156 190.8125 " fill-opacity="1" fill-rule="nonzero"/><path fill="rgb(0%, 0%, 0%)" d="M 214.617188 176.871094 C 214.605469 177.082031 214.582031 177.273438 214.542969 177.421875 C 214.464844 177.730469 214.347656 177.878906 214.214844 177.902344 C 214.058594 177.917969 213.890625 177.789062 213.71875 177.578125 C 213.628906 177.472656 213.550781 177.339844 213.460938 177.183594 C 213.351562 177.054688 213.234375 176.90625 213.125 176.753906 C 213.023438 176.582031 212.839844 176.492188 212.726562 176.335938 C 212.566406 176.273438 212.4375 176.136719 212.273438 176.125 C 212 176.035156 211.675781 176.074219 211.308594 176.273438 C 210.5625 176.703125 210.183594 177.679688 210.105469 178.4375 C 210.09375 178.625 210.066406 178.804688 210.035156 178.964844 C 210.039062 179.167969 210.039062 179.332031 210.035156 179.484375 C 209.996094 179.773438 209.917969 179.953125 209.777344 180.003906 C 209.636719 180.050781 209.460938 179.964844 209.242188 179.761719 C 209.144531 179.664062 209.03125 179.523438 208.914062 179.367188 C 208.816406 179.167969 208.714844 178.925781 208.609375 178.636719 C 208.449219 178.082031 208.398438 177.371094 208.585938 176.582031 C 208.804688 175.796875 209.34375 174.960938 210.234375 174.441406 C 211.109375 173.894531 212.308594 173.863281 213.132812 174.351562 C 213.574219 174.570312 213.847656 174.921875 214.085938 175.210938 C 214.25 175.527344 214.4375 175.828125 214.488281 176.113281 C 214.554688 176.386719 214.59375 176.636719 214.617188 176.871094 " fill-opacity="1" fill-rule="nonzero"/><path fill="rgb(0%, 0%, 0%)" d="M 210.84375 97.230469 C 211.515625 99.453125 214.175781 101.945312 209.628906 103.84375 C 208.070312 104.484375 206.195312 104.375 204.535156 104.414062 C 203.480469 104.433594 202.675781 105.257812 202.636719 106.304688 C 202.390625 116.011719 188.320312 117.449219 183.609375 110.144531 C 182.519531 108.457031 182.914062 106.316406 181.121094 105.152344 C 178.667969 103.554688 175.4375 105.75 174.753906 100.136719 C 174.554688 98.484375 174.613281 96.8125 174.503906 95.128906 C 186.460938 94.011719 198.480469 94.082031 210.472656 94.589844 C 210.382812 95.375 210.523438 96.195312 210.84375 97.230469 " fill-opacity="1" fill-rule="nonzero"/><path fill="rgb(0%, 0%, 0%)" d="M 209.617188 123.394531 C 210.054688 125.769531 209.589844 127.132812 209.359375 127.132812 C 209.015625 127.160156 208.894531 125.734375 208.179688 123.835938 C 207.800781 122.925781 207.144531 121.96875 206.183594 121.699219 C 205.230469 121.394531 203.859375 121.789062 202.746094 122.6875 C 201.617188 123.566406 200.859375 124.792969 200.710938 125.886719 C 200.582031 126.972656 201.089844 127.90625 201.796875 128.578125 C 203.203125 129.902344 204.652344 130.382812 204.496094 130.710938 C 204.445312 130.851562 204.078125 130.878906 203.453125 130.800781 C 202.835938 130.699219 201.863281 130.449219 200.839844 129.75 C 200.570312 129.574219 200.304688 129.371094 200.058594 129.105469 C 199.796875 128.867188 199.582031 128.546875 199.363281 128.21875 C 198.972656 127.523438 198.707031 126.652344 198.746094 125.734375 C 198.855469 123.902344 199.925781 122.207031 201.417969 121.003906 C 202.898438 119.828125 204.980469 119.148438 206.828125 119.839844 C 207.710938 120.179688 208.4375 120.816406 208.832031 121.484375 C 209.070312 121.800781 209.183594 122.152344 209.332031 122.457031 C 209.449219 122.789062 209.539062 123.105469 209.617188 123.394531 " fill-opacity="1" fill-rule="nonzero"/><path fill="rgb(0%, 0%, 0%)" d="M 208.398438 190.695312 C 210.296875 199.820312 209.289062 209.109375 209.371094 218.375 C 209.449219 225.777344 208.167969 238.164062 199.769531 241.378906 C 199.203125 241.589844 198.832031 241.980469 198.644531 242.4375 C 197.621094 241.414062 197.1875 239.796875 197.671875 237.367188 C 198.078125 235.273438 198.914062 232.644531 199.191406 230.101562 C 199.667969 230.035156 200.125 229.761719 200.445312 229.207031 C 206.371094 218.675781 203.015625 206.824219 202.636719 195.425781 C 204.066406 194.761719 205.320312 193.859375 206.222656 192.617188 C 206.828125 191.769531 207.574219 191.140625 208.398438 190.695312 " fill-opacity="1" fill-rule="nonzero"/><path fill="rgb(0%, 0%, 0%)" d="M 206.90625 257.871094 C 207.167969 258.589844 207.128906 259.296875 206.949219 259.777344 C 206.851562 260.015625 206.761719 260.234375 206.648438 260.394531 C 206.523438 260.550781 206.394531 260.664062 206.28125 260.753906 C 206.066406 260.929688 205.886719 260.96875 205.757812 260.890625 C 205.636719 260.824219 205.558594 260.640625 205.535156 260.394531 C 205.519531 260.285156 205.507812 260.15625 205.507812 260.007812 C 205.496094 259.867188 205.460938 259.714844 205.441406 259.566406 C 205.371094 258.957031 205.011719 258.417969 204.34375 258.109375 C 204.011719 257.960938 203.722656 257.960938 203.648438 257.960938 C 203.59375 257.945312 203.570312 257.984375 203.480469 258.023438 C 203.453125 258.128906 203.316406 258.210938 203.316406 258.339844 C 203.28125 258.472656 203.203125 258.578125 203.175781 258.742188 C 203.164062 258.917969 203.152344 259.058594 203.117188 259.1875 C 203.054688 259.4375 202.953125 259.59375 202.808594 259.625 C 202.675781 259.664062 202.492188 259.59375 202.3125 259.398438 C 202.230469 259.308594 202.128906 259.195312 202.023438 259.058594 C 201.933594 258.90625 201.875 258.640625 201.796875 258.378906 C 201.707031 258.109375 201.773438 257.753906 201.824219 257.402344 C 201.945312 257.023438 202.164062 256.589844 202.585938 256.316406 C 203.421875 255.738281 204.433594 255.808594 205.203125 256.167969 C 206.003906 256.519531 206.613281 257.152344 206.90625 257.871094 " fill-opacity="1" fill-rule="nonzero"/><path fill="rgb(0%, 0%, 0%)" d="M 201.40625 259.539062 C 201.558594 260.753906 201.289062 261.621094 201.078125 262.195312 C 200.839844 262.757812 200.632812 263.035156 200.492188 262.996094 C 200.34375 262.964844 200.265625 262.625 200.253906 262.054688 C 200.214844 261.5 200.214844 260.691406 199.925781 259.867188 C 199.667969 259.03125 199.0625 258.390625 198.078125 258.199219 C 197.070312 258.011719 195.746094 258.300781 194.644531 258.996094 C 193.53125 259.6875 192.894531 260.730469 192.90625 261.699219 C 192.867188 262.695312 193.460938 263.671875 194.007812 264.417969 C 195.171875 265.882812 196.261719 266.742188 196.0625 267.007812 C 195.90625 267.199219 194.644531 266.902344 192.90625 265.4375 C 192.121094 264.679688 191.070312 263.554688 190.941406 261.777344 C 190.863281 260.914062 191.082031 259.972656 191.566406 259.160156 C 192.03125 258.363281 192.71875 257.710938 193.484375 257.203125 C 195.042969 256.226562 196.871094 255.847656 198.539062 256.289062 C 199.363281 256.507812 200.125 257.007812 200.605469 257.632812 C 201.117188 258.25 201.328125 258.941406 201.40625 259.539062 " fill-opacity="1" fill-rule="nonzero"/><path fill="rgb(0%, 0%, 0%)" d="M 198.875 196.582031 C 199.390625 205.898438 201.902344 215.90625 198.378906 224.691406 C 197.78125 223.695312 196.871094 222.835938 195.476562 222.242188 C 195 222.039062 194.542969 221.878906 194.109375 221.773438 C 193.832031 220.546875 193.757812 219.332031 195.109375 218.613281 C 195.679688 218.3125 196.3125 217.765625 196.640625 217.199219 C 197.386719 215.871094 198.445312 214.480469 198.238281 212.886719 C 197.933594 210.5625 196.113281 208.46875 195.488281 206.167969 C 194.726562 203.335938 195.121094 200.039062 194.804688 197.050781 C 196.144531 196.980469 197.542969 196.839844 198.875 196.582031 " fill-opacity="1" fill-rule="nonzero"/><path fill="rgb(0%, 0%, 0%)" d="M 187.785156 245.792969 C 188.179688 246.921875 188.101562 247.820312 188.019531 248.417969 C 187.890625 249.011719 187.753906 249.3125 187.613281 249.3125 C 187.457031 249.300781 187.316406 248.984375 187.179688 248.457031 C 187.027344 247.925781 186.851562 247.140625 186.410156 246.40625 C 185.992188 245.664062 185.308594 245.167969 184.285156 245.179688 C 183.253906 245.179688 181.980469 245.675781 180.820312 246.421875 C 179.652344 247.179688 178.695312 248.148438 178.132812 249.113281 C 177.871094 249.59375 177.683594 250.058594 177.65625 250.476562 C 177.632812 250.890625 177.691406 251.257812 177.882812 251.597656 C 178.707031 252.941406 180.1875 253.410156 180.015625 253.738281 C 179.957031 253.875 179.621094 253.898438 179.035156 253.828125 C 178.449219 253.675781 177.492188 253.457031 176.652344 252.472656 C 176.222656 251.976562 175.933594 251.257812 175.882812 250.488281 C 175.84375 249.703125 176.0625 248.933594 176.375 248.214844 C 177.070312 246.800781 178.226562 245.585938 179.648438 244.640625 C 181.078125 243.714844 182.699219 243.097656 184.367188 243.222656 C 185.203125 243.296875 186.027344 243.574219 186.632812 244.09375 C 187.21875 244.597656 187.613281 245.21875 187.785156 245.792969 " fill-opacity="1" fill-rule="nonzero"/><path fill="rgb(0%, 0%, 0%)" d="M 175.417969 253.476562 C 175.515625 253.847656 175.5 254.09375 175.359375 254.15625 C 175.238281 254.21875 175.011719 254.117188 174.714844 253.914062 C 174.566406 253.804688 174.414062 253.660156 174.25 253.507812 C 174.058594 253.371094 173.832031 253.257812 173.613281 253.089844 C 172.738281 252.484375 171.488281 252.539062 170.496094 253.636719 C 169.570312 254.773438 169.738281 256.039062 170.445312 256.796875 C 170.625 256.96875 170.753906 257.164062 170.917969 257.335938 C 171.117188 257.492188 171.296875 257.644531 171.4375 257.765625 C 171.714844 258.023438 171.84375 258.238281 171.777344 258.363281 C 171.714844 258.5 171.476562 258.550781 171.097656 258.527344 C 170.902344 258.511719 170.691406 258.472656 170.421875 258.429688 C 170.15625 258.339844 169.839844 258.160156 169.488281 257.972656 C 169.121094 257.78125 168.863281 257.414062 168.519531 257.074219 C 168.371094 256.886719 168.269531 256.644531 168.152344 256.40625 C 168.019531 256.167969 167.941406 255.898438 167.914062 255.621094 C 167.695312 254.484375 168.070312 253.207031 168.875 252.261719 C 169.671875 251.308594 170.890625 250.730469 172.042969 250.765625 C 172.332031 250.757812 172.601562 250.777344 172.867188 250.878906 C 173.125 250.96875 173.375 251.019531 173.589844 251.148438 C 173.96875 251.425781 174.398438 251.625 174.597656 251.960938 C 174.84375 252.25 175.042969 252.523438 175.183594 252.773438 C 175.289062 253.042969 175.378906 253.269531 175.417969 253.476562 " fill-opacity="1" fill-rule="nonzero"/><path fill="rgb(0%, 0%, 0%)" d="M 174.285156 111.996094 C 174.726562 112.511719 174.871094 113.171875 174.84375 113.671875 C 174.792969 114.179688 174.65625 114.585938 174.488281 114.914062 C 173.78125 116.164062 173.046875 116.542969 172.828125 116.390625 C 172.566406 116.230469 172.867188 115.445312 173.054688 114.417969 C 173.09375 114.167969 173.09375 113.917969 173.066406 113.710938 C 173.007812 113.511719 172.945312 113.398438 172.828125 113.308594 C 172.617188 113.109375 171.921875 112.925781 171.175781 112.964844 C 170.433594 113.003906 169.660156 113.210938 169.234375 113.460938 C 169.015625 113.582031 168.964844 113.660156 168.9375 113.632812 C 168.902344 113.621094 168.863281 113.777344 169.003906 113.96875 C 169.5 114.71875 170.273438 115.277344 170.09375 115.542969 C 170.019531 115.683594 169.789062 115.722656 169.421875 115.683594 C 169.066406 115.632812 168.5 115.476562 167.890625 114.988281 C 167.601562 114.765625 167.195312 114.285156 167.167969 113.550781 C 167.167969 112.804688 167.632812 112.207031 168.070312 111.878906 C 168.953125 111.1875 169.964844 110.921875 171.070312 110.839844 C 172.160156 110.820312 173.390625 110.96875 174.285156 111.996094 " fill-opacity="1" fill-rule="nonzero"/><path fill="rgb(0%, 0%, 0%)" d="M 166.910156 115.152344 C 167.839844 117.414062 167.382812 118.960938 167.128906 118.921875 C 166.800781 118.921875 166.671875 117.539062 165.570312 115.84375 C 165.039062 115.042969 164.195312 114.101562 163.226562 113.890625 C 162.785156 113.789062 162.261719 113.917969 161.796875 114.179688 C 161.683594 114.269531 161.59375 114.257812 161.429688 114.40625 L 160.972656 114.785156 C 160.808594 114.953125 160.542969 115.253906 160.367188 115.492188 C 159.996094 116.011719 159.886719 116.558594 159.898438 117.109375 C 159.898438 117.683594 160.1875 118.246094 160.464844 118.78125 C 161.121094 119.828125 162.035156 120.652344 162.859375 121.234375 C 163.699219 121.8125 164.46875 122.191406 164.960938 122.40625 C 165.519531 122.636719 165.886719 122.765625 165.863281 122.925781 C 165.847656 123.054688 165.519531 123.214844 164.863281 123.226562 C 164.140625 123.238281 163.203125 123.039062 162.113281 122.546875 C 161.039062 122.03125 159.820312 121.222656 158.824219 119.867188 C 158.367188 119.160156 157.894531 118.335938 157.804688 117.304688 C 157.703125 116.292969 157.988281 115.164062 158.589844 114.296875 C 158.90625 113.867188 159.183594 113.539062 159.636719 113.144531 L 160.109375 112.761719 C 160.253906 112.636719 160.542969 112.484375 160.761719 112.363281 C 161.683594 111.867188 162.769531 111.699219 163.738281 111.996094 C 164.683594 112.285156 165.351562 112.863281 165.847656 113.433594 C 166.355469 114.007812 166.660156 114.609375 166.910156 115.152344 " fill-opacity="1" fill-rule="nonzero"/><path fill="rgb(0%, 0%, 0%)" d="M 161.328125 273.277344 C 161.328125 273.488281 161.300781 273.757812 161.265625 274.046875 C 161.226562 274.351562 161.078125 274.640625 160.933594 274.96875 C 160.761719 275.289062 160.515625 275.601562 160.226562 275.878906 C 159.636719 276.453125 158.777344 276.835938 157.84375 276.953125 C 156.917969 277.054688 155.855469 276.875 155.109375 276.046875 C 154.941406 275.828125 154.792969 275.589844 154.703125 275.367188 C 154.636719 275.109375 154.605469 274.859375 154.578125 274.625 C 154.636719 274.222656 154.703125 273.816406 154.882812 273.554688 C 155.042969 273.289062 155.210938 273.035156 155.359375 272.886719 C 155.515625 272.757812 155.65625 272.652344 155.777344 272.597656 C 156.046875 272.441406 156.246094 272.402344 156.363281 272.480469 C 156.484375 272.570312 156.511719 272.757812 156.472656 273.046875 C 156.453125 273.199219 156.414062 273.367188 156.351562 273.554688 C 156.3125 273.734375 156.339844 273.894531 156.3125 274.0625 C 156.273438 274.222656 156.351562 274.375 156.351562 274.503906 C 156.402344 274.554688 156.429688 274.59375 156.429688 274.625 C 156.464844 274.652344 156.511719 274.664062 156.53125 274.691406 C 156.667969 274.792969 157.125 274.910156 157.621094 274.84375 C 158.644531 274.714844 159.441406 274.136719 159.859375 273.515625 C 159.949219 273.355469 160.046875 273.199219 160.148438 273.058594 C 160.226562 272.910156 160.292969 272.769531 160.355469 272.652344 C 160.503906 272.429688 160.660156 272.28125 160.792969 272.269531 C 160.949219 272.269531 161.078125 272.402344 161.1875 272.707031 C 161.238281 272.859375 161.289062 273.046875 161.328125 273.277344 " fill-opacity="1" fill-rule="nonzero"/><path fill="rgb(0%, 0%, 0%)" d="M 159.925781 259.539062 C 160.542969 260.679688 160.414062 261.449219 160.164062 261.519531 C 159.875 261.648438 159.441406 261.070312 158.746094 260.484375 C 158.042969 259.90625 157.085938 259.578125 155.945312 260.007812 C 155.402344 260.222656 154.894531 260.574219 154.636719 260.914062 C 154.398438 261.269531 154.324219 261.398438 154.414062 261.6875 C 154.664062 262.289062 155.4375 262.707031 155.3125 262.996094 C 155.261719 263.136719 155.054688 263.214844 154.742188 263.253906 C 154.375 263.214844 153.828125 263.164062 153.234375 262.636719 C 152.945312 262.367188 152.6875 261.90625 152.640625 261.382812 C 152.578125 260.863281 152.710938 260.332031 152.957031 259.90625 C 153.421875 259.019531 154.230469 258.390625 155.199219 258.011719 C 156.15625 257.644531 157.265625 257.632812 158.148438 258.011719 C 159.023438 258.363281 159.621094 258.996094 159.925781 259.539062 " fill-opacity="1" fill-rule="nonzero"/><path fill="rgb(0%, 0%, 0%)" d="M 155.3125 271.214844 C 155.5 271.355469 155.070312 272.707031 153.363281 274.390625 C 153.105469 274.570312 152.855469 274.769531 152.589844 274.96875 C 152.28125 275.132812 151.964844 275.328125 151.585938 275.449219 C 150.851562 275.746094 149.855469 275.789062 148.953125 275.4375 C 148.039062 275.082031 147.316406 274.402344 146.789062 273.65625 C 146.253906 272.886719 145.898438 272.039062 145.648438 271.136719 C 145.152344 269.359375 145.140625 267.578125 145.609375 265.972656 C 145.863281 265.1875 146.214844 264.429688 146.800781 263.839844 C 147.355469 263.265625 148.0625 262.835938 148.753906 262.746094 C 150.117188 262.507812 151.058594 263.015625 151.636719 263.304688 C 152.160156 263.660156 152.410156 263.921875 152.359375 264.050781 C 152.269531 264.429688 150.769531 263.671875 149.144531 264.210938 C 148.386719 264.496094 147.761719 265.277344 147.511719 266.492188 C 147.257812 267.667969 147.304688 269.160156 147.703125 270.574219 C 148.082031 271.984375 148.84375 273.226562 149.710938 273.617188 C 150.550781 274.0625 151.613281 273.707031 152.449219 273.175781 C 154.109375 272.0625 155.042969 271.003906 155.3125 271.214844 " fill-opacity="1" fill-rule="nonzero"/><path fill="rgb(0%, 0%, 0%)" d="M 133.207031 244.980469 C 134.109375 245.792969 134.308594 246.875 134.285156 247.609375 C 134.214844 249.125 133.589844 249.792969 133.363281 249.730469 C 133.035156 249.664062 133.074219 248.8125 132.789062 247.769531 C 132.527344 246.722656 131.636719 245.925781 130.207031 246.203125 C 128.773438 246.542969 128.445312 247.519531 128.785156 248.59375 C 129.09375 249.613281 129.582031 250.371094 129.34375 250.578125 C 129.15625 250.746094 128.332031 250.5 127.433594 249.261719 C 127.039062 248.667969 126.582031 247.636719 126.988281 246.421875 C 127.382812 245.21875 128.535156 244.371094 129.761719 244.121094 C 130.992188 243.855469 132.332031 244.171875 133.207031 244.980469 " fill-opacity="1" fill-rule="nonzero"/><path fill="rgb(0%, 0%, 0%)" d="M 126.53125 248.695312 C 127.179688 249.972656 127.40625 251.125 127.367188 251.921875 C 127.328125 252.683594 127.15625 253.101562 127.027344 253.101562 C 126.671875 253.101562 126.671875 251.4375 125.242188 249.480469 C 124.554688 248.503906 123.480469 247.507812 122.152344 247.011719 C 121.476562 246.800781 120.78125 246.761719 120.109375 246.949219 C 119.742188 247.039062 119.492188 247.230469 119.195312 247.363281 C 119.035156 247.492188 118.828125 247.671875 118.644531 247.820312 L 118.5 247.949219 L 118.488281 247.960938 L 118.476562 247.988281 L 118.289062 248.226562 C 117.742188 248.835938 117.453125 249.570312 117.363281 250.289062 C 117.257812 251.019531 117.375 251.777344 117.652344 252.460938 C 118.148438 253.847656 119.164062 254.941406 120.074219 255.671875 C 121.011719 256.40625 121.933594 256.824219 122.546875 257.035156 C 123.226562 257.246094 123.660156 257.363281 123.644531 257.53125 C 123.632812 257.652344 123.253906 257.832031 122.46875 257.855469 C 121.628906 257.882812 120.492188 257.632812 119.234375 256.925781 C 118.011719 256.210938 116.640625 255.042969 115.828125 253.207031 C 115.410156 252.304688 115.171875 251.207031 115.28125 250.070312 C 115.371094 248.933594 115.855469 247.757812 116.628906 246.875 L 116.90625 246.53125 L 116.941406 246.496094 L 116.941406 246.484375 L 117.046875 246.382812 L 117.070312 246.371094 L 117.136719 246.304688 L 117.277344 246.195312 C 117.476562 246.027344 117.636719 245.875 117.859375 245.726562 C 118.417969 245.375 118.984375 245.066406 119.558594 244.941406 C 120.710938 244.640625 121.894531 244.789062 122.847656 245.179688 C 124.746094 246.015625 125.886719 247.429688 126.53125 248.695312 " fill-opacity="1" fill-rule="nonzero"/></svg>